<?xml version="1.0" encoding="UTF-8"?>

<svg version="1.2" baseProfile="tiny" width="50mm" height="50mm" viewBox="0 0 5000 5000" preserveAspectRatio="xMidYMid" fill-rule="evenodd" clip-path="url(#presentation_clip_path)" stroke-width="28.222" stroke-linejoin="round" xmlns="http://www.w3.org/2000/svg" xmlns:ooo="http://xml.openoffice.org/svg/export" xmlns:xlink="http://www.w3.org/1999/xlink" xml:space="preserve">
 <defs class="ClipPathGroup">
  <clipPath id="presentation_clip_path" clipPathUnits="userSpaceOnUse">
   <rect x="0" y="0" width="5000" height="5000"/>
  </clipPath>
 </defs>
 <defs class="TextShapeIndex">
  <g ooo:slide="id1" ooo:id-list="id3 id4 id5 id6 id7 id8 id9 id10"/>
 </defs>
 <defs class="EmbeddedBulletChars">
  <g id="bullet-char-template(57356)" transform="scale(0.00048828125,-0.00048828125)">
   <path d="M 580,1141 L 1163,571 580,0 -4,571 580,1141 Z"/>
  </g>
  <g id="bullet-char-template(57354)" transform="scale(0.00048828125,-0.00048828125)">
   <path d="M 8,1128 L 1137,1128 1137,0 8,0 8,1128 Z"/>
  </g>
  <g id="bullet-char-template(10146)" transform="scale(0.00048828125,-0.00048828125)">
   <path d="M 174,0 L 602,739 174,1481 1456,739 174,0 Z M 1358,739 L 309,1346 659,739 1358,739 Z"/>
  </g>
  <g id="bullet-char-template(10132)" transform="scale(0.00048828125,-0.00048828125)">
   <path d="M 2015,739 L 1276,0 717,0 1260,543 174,543 174,936 1260,936 717,1481 1274,1481 2015,739 Z"/>
  </g>
  <g id="bullet-char-template(10007)" transform="scale(0.00048828125,-0.00048828125)">
   <path d="M 0,-2 C -7,14 -16,27 -25,37 L 356,567 C 262,823 215,952 215,954 215,979 228,992 255,992 264,992 276,990 289,987 310,991 331,999 354,1012 L 381,999 492,748 772,1049 836,1024 860,1049 C 881,1039 901,1025 922,1006 886,937 835,863 770,784 769,783 710,716 594,584 L 774,223 C 774,196 753,168 711,139 L 727,119 C 717,90 699,76 672,76 641,76 570,178 457,381 L 164,-76 C 142,-110 111,-127 72,-127 30,-127 9,-110 8,-76 1,-67 -2,-52 -2,-32 -2,-23 -1,-13 0,-2 Z"/>
  </g>
  <g id="bullet-char-template(10004)" transform="scale(0.00048828125,-0.00048828125)">
   <path d="M 285,-33 C 182,-33 111,30 74,156 52,228 41,333 41,471 41,549 55,616 82,672 116,743 169,778 240,778 293,778 328,747 346,684 L 369,508 C 377,444 397,411 428,410 L 1163,1116 C 1174,1127 1196,1133 1229,1133 1271,1133 1292,1118 1292,1087 L 1292,965 C 1292,929 1282,901 1262,881 L 442,47 C 390,-6 338,-33 285,-33 Z"/>
  </g>
  <g id="bullet-char-template(9679)" transform="scale(0.00048828125,-0.00048828125)">
   <path d="M 813,0 C 632,0 489,54 383,161 276,268 223,411 223,592 223,773 276,916 383,1023 489,1130 632,1184 813,1184 992,1184 1136,1130 1245,1023 1353,916 1407,772 1407,592 1407,412 1353,268 1245,161 1136,54 992,0 813,0 Z"/>
  </g>
  <g id="bullet-char-template(8226)" transform="scale(0.00048828125,-0.00048828125)">
   <path d="M 346,457 C 273,457 209,483 155,535 101,586 74,649 74,723 74,796 101,859 155,911 209,963 273,989 346,989 419,989 480,963 531,910 582,859 608,796 608,723 608,648 583,586 532,535 482,483 420,457 346,457 Z"/>
  </g>
  <g id="bullet-char-template(8211)" transform="scale(0.00048828125,-0.00048828125)">
   <path d="M -4,459 L 1135,459 1135,606 -4,606 -4,459 Z"/>
  </g>
 </defs>
 <defs class="TextEmbeddedBitmaps"/>
 <g>
  <g id="id2" class="Master_Slide">
   <g id="bg-id2" class="Background"/>
   <g id="bo-id2" class="BackgroundObjects"/>
  </g>
 </g>
 <g class="SlideGroup">
  <g>
   <g id="id1" class="Slide" clip-path="url(#presentation_clip_path)">
    <g class="Page">
     <g class="Group">
      <g class="com.sun.star.drawing.PolyPolygonShape">
       <g id="id3">
        <path fill="rgb(27,25,24)" stroke="none" d="M 3526,4236 L 64,4236 4463,636 4900,636 3526,4236 Z"/>
       </g>
      </g>
      <g class="com.sun.star.drawing.PolyPolygonShape">
       <g id="id4">
        <path fill="rgb(255,255,255)" stroke="none" d="M 2073,4067 L 2396,3625 2279,3545 1863,4067 2073,4067 Z M 2073,4067 L 2073,4067 Z M 4255,1314 L 4518,936 4425,936 4147,1249 4255,1314 Z"/>
       </g>
      </g>
      <g class="com.sun.star.drawing.ClosedBezierShape">
       <g id="id5">
        <path fill="rgb(6,68,130)" stroke="none" d="M 3527,1248 C 4204,1409 4622,2088 4460,2765 4300,3442 3620,3859 2945,3698 2268,3538 1852,2858 2010,2182 2172,1505 2850,1089 3527,1248 Z"/>
       </g>
      </g>
      <g class="com.sun.star.drawing.ClosedBezierShape">
       <g id="id6">
        <path fill="rgb(6,68,130)" stroke="none" d="M 3530,1234 L 3530,1234 3531,1234 C 3872,1316 4149,1528 4319,1805 4489,2082 4555,2422 4473,2766 L 4473,2766 4473,2767 C 4392,3108 4181,3385 3903,3555 3626,3725 3285,3791 2943,3709 L 2943,3709 2942,3709 C 2600,3628 2323,3417 2153,3139 1982,2862 1920,2521 1998,2179 L 1998,2179 1998,2178 C 2080,1836 2293,1559 2569,1389 2846,1218 3186,1156 3530,1234 Z M 3530,1234 L 3530,1234 Z M 4297,1818 C 4130,1547 3860,1339 3526,1261 L 3526,1261 C 3189,1182 2855,1245 2582,1411 2311,1578 2103,1849 2025,2182 L 2025,2184 C 1946,2520 2009,2855 2175,3125 2342,3396 2611,3604 2946,3685 L 2948,3685 C 3284,3763 3619,3701 3890,3533 4160,3366 4369,3096 4449,2763 L 4449,2762 C 4527,2425 4465,2090 4297,1818 Z"/>
       </g>
      </g>
      <g class="com.sun.star.drawing.ClosedBezierShape">
       <g id="id7">
        <path fill="rgb(101,175,220)" stroke="none" d="M 4306,1808 C 3955,1810 3473,1854 3042,2107 2612,2362 2340,2814 2154,3117 1794,2522 1985,1747 2580,1385 3174,1025 3946,1213 4306,1808 Z"/>
       </g>
      </g>
      <g class="com.sun.star.drawing.ClosedBezierShape">
       <g id="id8">
        <path fill="rgb(6,68,130)" stroke="none" d="M 4304,1819 C 4129,1819 3921,1831 3704,1873 3489,1915 3262,1990 3048,2116 2633,2364 2366,2795 2180,3095 L 2164,3122 2142,3121 C 1960,2821 1919,2476 1995,2160 2074,1843 2272,1556 2570,1374 L 2570,1374 2572,1372 C 2872,1190 3218,1150 3533,1225 3847,1302 4132,1499 4314,1799 L 4304,1819 Z M 4304,1819 L 4304,1819 Z M 3700,1848 C 3910,1806 4109,1795 4281,1795 4103,1511 3828,1324 3527,1250 3218,1176 2880,1217 2586,1394 L 2586,1394 2585,1396 C 2291,1573 2097,1854 2020,2166 1947,2469 1984,2800 2152,3090 L 2158,3081 C 2346,2779 2614,2345 3035,2094 3252,1966 3482,1891 3700,1848 Z"/>
       </g>
      </g>
      <g class="com.sun.star.drawing.ClosedBezierShape">
       <g id="id9">
        <path fill="rgb(255,255,255)" stroke="none" d="M 3417,1718 C 3833,1817 4089,2235 3990,2653 3891,3069 3473,3325 3057,3226 2641,3127 2385,2709 2482,2293 2581,1877 2999,1620 3417,1718 Z"/>
        <path fill="none" stroke="rgb(6,68,130)" stroke-width="18" stroke-linejoin="miter" d="M 3417,1718 C 3833,1817 4089,2235 3990,2653 3891,3069 3473,3325 3057,3226 2641,3127 2385,2709 2482,2293 2581,1877 2999,1620 3417,1718 Z"/>
       </g>
      </g>
     </g>
     <g class="com.sun.star.drawing.PolyPolygonShape">
      <g id="id10"/>
     </g>
    </g>
   </g>
  </g>
 </g>
</svg>